<mxfile host="app.diagrams.net" agent="Mozilla/5.0 (Windows NT 10.0; Win64; x64; rv:132.0) Gecko/20100101 Firefox/132.0" version="24.8.4">
  <diagram name="Page-1" id="929967ad-93f9-6ef4-fab6-5d389245f69c">
    <mxGraphModel dx="533" dy="273" grid="1" gridSize="10" guides="1" tooltips="1" connect="1" arrows="1" fold="1" page="1" pageScale="1.5" pageWidth="1169" pageHeight="826" background="none" math="0" shadow="0">
      <root>
        <mxCell id="0" style=";html=1;" />
        <mxCell id="1" style=";html=1;" parent="0" />
        <mxCell id="qDhtsbZyAljU5v_HCK9k-1" value="Admin" style="rounded=0;whiteSpace=wrap;html=1;" vertex="1" parent="1">
          <mxGeometry x="891.5" y="470" width="120" height="60" as="geometry" />
        </mxCell>
        <mxCell id="qDhtsbZyAljU5v_HCK9k-2" value="Password" style="ellipse;whiteSpace=wrap;html=1;fontSize=10;" vertex="1" parent="1">
          <mxGeometry x="810" y="400" width="80" height="40" as="geometry" />
        </mxCell>
        <mxCell id="qDhtsbZyAljU5v_HCK9k-3" value="Username" style="ellipse;whiteSpace=wrap;html=1;fontSize=10;" vertex="1" parent="1">
          <mxGeometry x="910" y="400" width="80" height="40" as="geometry" />
        </mxCell>
        <mxCell id="qDhtsbZyAljU5v_HCK9k-4" value="Id_admin" style="ellipse;whiteSpace=wrap;html=1;fontSize=10;" vertex="1" parent="1">
          <mxGeometry x="1013" y="400" width="80" height="40" as="geometry" />
        </mxCell>
        <mxCell id="qDhtsbZyAljU5v_HCK9k-5" value="" style="endArrow=none;html=1;rounded=0;entryX=0.593;entryY=1.05;entryDx=0;entryDy=0;entryPerimeter=0;exitX=-0.006;exitY=0.193;exitDx=0;exitDy=0;exitPerimeter=0;" edge="1" parent="1" source="qDhtsbZyAljU5v_HCK9k-1" target="qDhtsbZyAljU5v_HCK9k-2">
          <mxGeometry width="50" height="50" relative="1" as="geometry">
            <mxPoint x="931.5" y="490" as="sourcePoint" />
            <mxPoint x="981.5" y="440" as="targetPoint" />
          </mxGeometry>
        </mxCell>
        <mxCell id="qDhtsbZyAljU5v_HCK9k-6" value="" style="endArrow=none;html=1;rounded=0;entryX=0.571;entryY=1.019;entryDx=0;entryDy=0;entryPerimeter=0;exitX=1.004;exitY=0.144;exitDx=0;exitDy=0;exitPerimeter=0;" edge="1" parent="1" source="qDhtsbZyAljU5v_HCK9k-1" target="qDhtsbZyAljU5v_HCK9k-4">
          <mxGeometry width="50" height="50" relative="1" as="geometry">
            <mxPoint x="900.5" y="492" as="sourcePoint" />
            <mxPoint x="867.5" y="452" as="targetPoint" />
            <Array as="points" />
          </mxGeometry>
        </mxCell>
        <mxCell id="qDhtsbZyAljU5v_HCK9k-7" value="" style="endArrow=none;html=1;rounded=0;entryX=0.5;entryY=1;entryDx=0;entryDy=0;exitX=0.5;exitY=0;exitDx=0;exitDy=0;" edge="1" parent="1" source="qDhtsbZyAljU5v_HCK9k-1" target="qDhtsbZyAljU5v_HCK9k-3">
          <mxGeometry width="50" height="50" relative="1" as="geometry">
            <mxPoint x="1021.5" y="489" as="sourcePoint" />
            <mxPoint x="1068.5" y="451" as="targetPoint" />
            <Array as="points" />
          </mxGeometry>
        </mxCell>
        <mxCell id="qDhtsbZyAljU5v_HCK9k-8" value="Berita" style="rounded=0;whiteSpace=wrap;html=1;" vertex="1" parent="1">
          <mxGeometry x="550" y="240" width="120" height="60" as="geometry" />
        </mxCell>
        <mxCell id="qDhtsbZyAljU5v_HCK9k-9" value="Pegawai" style="rounded=0;whiteSpace=wrap;html=1;" vertex="1" parent="1">
          <mxGeometry x="1270" y="240" width="120" height="60" as="geometry" />
        </mxCell>
        <mxCell id="qDhtsbZyAljU5v_HCK9k-10" value="Perangkat_daerah" style="rounded=0;whiteSpace=wrap;html=1;" vertex="1" parent="1">
          <mxGeometry x="1180" y="610" width="120" height="60" as="geometry" />
        </mxCell>
        <mxCell id="qDhtsbZyAljU5v_HCK9k-13" value="Post_id" style="ellipse;whiteSpace=wrap;html=1;fontSize=10;" vertex="1" parent="1">
          <mxGeometry x="390" y="210" width="80" height="40" as="geometry" />
        </mxCell>
        <mxCell id="qDhtsbZyAljU5v_HCK9k-14" value="content" style="ellipse;whiteSpace=wrap;html=1;fontSize=10;" vertex="1" parent="1">
          <mxGeometry x="400" y="150" width="80" height="40" as="geometry" />
        </mxCell>
        <mxCell id="qDhtsbZyAljU5v_HCK9k-15" value="slug" style="ellipse;whiteSpace=wrap;html=1;fontSize=10;" vertex="1" parent="1">
          <mxGeometry x="490" y="120" width="80" height="40" as="geometry" />
        </mxCell>
        <mxCell id="qDhtsbZyAljU5v_HCK9k-16" value="categories_id" style="ellipse;whiteSpace=wrap;html=1;fontSize=10;" vertex="1" parent="1">
          <mxGeometry x="590" y="120" width="80" height="40" as="geometry" />
        </mxCell>
        <mxCell id="qDhtsbZyAljU5v_HCK9k-18" value="author_id" style="ellipse;whiteSpace=wrap;html=1;fontSize=10;" vertex="1" parent="1">
          <mxGeometry x="650" y="170" width="80" height="40" as="geometry" />
        </mxCell>
        <mxCell id="qDhtsbZyAljU5v_HCK9k-19" value="Title" style="ellipse;whiteSpace=wrap;html=1;fontSize=10;" vertex="1" parent="1">
          <mxGeometry x="420" y="270" width="80" height="40" as="geometry" />
        </mxCell>
        <mxCell id="qDhtsbZyAljU5v_HCK9k-20" value="" style="endArrow=none;html=1;rounded=0;entryX=0.227;entryY=0.971;entryDx=0;entryDy=0;entryPerimeter=0;exitX=0.905;exitY=0.005;exitDx=0;exitDy=0;exitPerimeter=0;" edge="1" parent="1" source="qDhtsbZyAljU5v_HCK9k-8" target="qDhtsbZyAljU5v_HCK9k-18">
          <mxGeometry width="50" height="50" relative="1" as="geometry">
            <mxPoint x="610" y="270" as="sourcePoint" />
            <mxPoint x="660" y="220" as="targetPoint" />
          </mxGeometry>
        </mxCell>
        <mxCell id="qDhtsbZyAljU5v_HCK9k-21" value="" style="endArrow=none;html=1;rounded=0;entryX=0.328;entryY=0.995;entryDx=0;entryDy=0;entryPerimeter=0;exitX=0.545;exitY=0.009;exitDx=0;exitDy=0;exitPerimeter=0;" edge="1" parent="1" source="qDhtsbZyAljU5v_HCK9k-8" target="qDhtsbZyAljU5v_HCK9k-16">
          <mxGeometry width="50" height="50" relative="1" as="geometry">
            <mxPoint x="600" y="240" as="sourcePoint" />
            <mxPoint x="619" y="209" as="targetPoint" />
          </mxGeometry>
        </mxCell>
        <mxCell id="qDhtsbZyAljU5v_HCK9k-22" value="" style="endArrow=none;html=1;rounded=0;entryX=0.548;entryY=0.948;entryDx=0;entryDy=0;entryPerimeter=0;exitX=0.25;exitY=0;exitDx=0;exitDy=0;" edge="1" parent="1" source="qDhtsbZyAljU5v_HCK9k-8" target="qDhtsbZyAljU5v_HCK9k-15">
          <mxGeometry width="50" height="50" relative="1" as="geometry">
            <mxPoint x="554" y="240" as="sourcePoint" />
            <mxPoint x="570" y="160" as="targetPoint" />
          </mxGeometry>
        </mxCell>
        <mxCell id="qDhtsbZyAljU5v_HCK9k-23" value="" style="endArrow=none;html=1;rounded=0;entryX=0.92;entryY=0.796;entryDx=0;entryDy=0;entryPerimeter=0;exitX=-0.006;exitY=0.098;exitDx=0;exitDy=0;exitPerimeter=0;" edge="1" parent="1" source="qDhtsbZyAljU5v_HCK9k-8" target="qDhtsbZyAljU5v_HCK9k-14">
          <mxGeometry width="50" height="50" relative="1" as="geometry">
            <mxPoint x="526" y="262" as="sourcePoint" />
            <mxPoint x="490" y="180" as="targetPoint" />
          </mxGeometry>
        </mxCell>
        <mxCell id="qDhtsbZyAljU5v_HCK9k-24" value="" style="endArrow=none;html=1;rounded=0;exitX=0.018;exitY=0.364;exitDx=0;exitDy=0;exitPerimeter=0;" edge="1" parent="1" source="qDhtsbZyAljU5v_HCK9k-8" target="qDhtsbZyAljU5v_HCK9k-13">
          <mxGeometry width="50" height="50" relative="1" as="geometry">
            <mxPoint x="535" y="270" as="sourcePoint" />
            <mxPoint x="470" y="206" as="targetPoint" />
          </mxGeometry>
        </mxCell>
        <mxCell id="qDhtsbZyAljU5v_HCK9k-25" value="" style="endArrow=none;html=1;rounded=0;exitX=-0.015;exitY=0.698;exitDx=0;exitDy=0;exitPerimeter=0;entryX=0.984;entryY=0.282;entryDx=0;entryDy=0;entryPerimeter=0;" edge="1" parent="1" source="qDhtsbZyAljU5v_HCK9k-8" target="qDhtsbZyAljU5v_HCK9k-19">
          <mxGeometry width="50" height="50" relative="1" as="geometry">
            <mxPoint x="552" y="272" as="sourcePoint" />
            <mxPoint x="475" y="250" as="targetPoint" />
          </mxGeometry>
        </mxCell>
        <mxCell id="qDhtsbZyAljU5v_HCK9k-26" value="status" style="ellipse;whiteSpace=wrap;html=1;fontSize=10;" vertex="1" parent="1">
          <mxGeometry x="1370" y="120" width="80" height="40" as="geometry" />
        </mxCell>
        <mxCell id="qDhtsbZyAljU5v_HCK9k-27" value="Unit_bidang" style="ellipse;whiteSpace=wrap;html=1;fontSize=10;" vertex="1" parent="1">
          <mxGeometry x="1460" y="130" width="80" height="40" as="geometry" />
        </mxCell>
        <mxCell id="qDhtsbZyAljU5v_HCK9k-28" value="NIP" style="ellipse;whiteSpace=wrap;html=1;fontSize=10;" vertex="1" parent="1">
          <mxGeometry x="1280" y="130" width="80" height="40" as="geometry" />
        </mxCell>
        <mxCell id="qDhtsbZyAljU5v_HCK9k-29" value="Jabatan" style="ellipse;whiteSpace=wrap;html=1;fontSize=10;" vertex="1" parent="1">
          <mxGeometry x="1490" y="190" width="80" height="40" as="geometry" />
        </mxCell>
        <mxCell id="qDhtsbZyAljU5v_HCK9k-30" value="name" style="ellipse;whiteSpace=wrap;html=1;fontSize=10;" vertex="1" parent="1">
          <mxGeometry x="1480" y="265" width="80" height="40" as="geometry" />
        </mxCell>
        <mxCell id="qDhtsbZyAljU5v_HCK9k-31" value="Pegawai_id" style="ellipse;whiteSpace=wrap;html=1;fontSize=10;" vertex="1" parent="1">
          <mxGeometry x="1440" y="325" width="80" height="40" as="geometry" />
        </mxCell>
        <mxCell id="qDhtsbZyAljU5v_HCK9k-32" value="" style="endArrow=none;html=1;rounded=0;entryX=0.318;entryY=0.056;entryDx=0;entryDy=0;entryPerimeter=0;exitX=0.878;exitY=0.983;exitDx=0;exitDy=0;exitPerimeter=0;" edge="1" parent="1" source="qDhtsbZyAljU5v_HCK9k-9" target="qDhtsbZyAljU5v_HCK9k-31">
          <mxGeometry width="50" height="50" relative="1" as="geometry">
            <mxPoint x="1500" y="290" as="sourcePoint" />
            <mxPoint x="1550" y="240" as="targetPoint" />
          </mxGeometry>
        </mxCell>
        <mxCell id="qDhtsbZyAljU5v_HCK9k-33" value="" style="endArrow=none;html=1;rounded=0;entryX=0.068;entryY=0.349;entryDx=0;entryDy=0;entryPerimeter=0;exitX=1;exitY=0.5;exitDx=0;exitDy=0;" edge="1" parent="1" source="qDhtsbZyAljU5v_HCK9k-9" target="qDhtsbZyAljU5v_HCK9k-30">
          <mxGeometry width="50" height="50" relative="1" as="geometry">
            <mxPoint x="1420" y="250" as="sourcePoint" />
            <mxPoint x="1480" y="298" as="targetPoint" />
          </mxGeometry>
        </mxCell>
        <mxCell id="qDhtsbZyAljU5v_HCK9k-34" value="" style="endArrow=none;html=1;rounded=0;entryX=0.005;entryY=0.68;entryDx=0;entryDy=0;entryPerimeter=0;exitX=1.007;exitY=0.113;exitDx=0;exitDy=0;exitPerimeter=0;" edge="1" parent="1" source="qDhtsbZyAljU5v_HCK9k-9" target="qDhtsbZyAljU5v_HCK9k-29">
          <mxGeometry width="50" height="50" relative="1" as="geometry">
            <mxPoint x="1430" y="221" as="sourcePoint" />
            <mxPoint x="1495" y="250" as="targetPoint" />
          </mxGeometry>
        </mxCell>
        <mxCell id="qDhtsbZyAljU5v_HCK9k-35" value="" style="endArrow=none;html=1;rounded=0;entryX=0.277;entryY=0.896;entryDx=0;entryDy=0;entryPerimeter=0;exitX=0.785;exitY=0.021;exitDx=0;exitDy=0;exitPerimeter=0;" edge="1" parent="1" source="qDhtsbZyAljU5v_HCK9k-9" target="qDhtsbZyAljU5v_HCK9k-27">
          <mxGeometry width="50" height="50" relative="1" as="geometry">
            <mxPoint x="1391" y="220" as="sourcePoint" />
            <mxPoint x="1460" y="210" as="targetPoint" />
          </mxGeometry>
        </mxCell>
        <mxCell id="qDhtsbZyAljU5v_HCK9k-36" value="" style="endArrow=none;html=1;rounded=0;entryX=0.5;entryY=1;entryDx=0;entryDy=0;exitX=0.75;exitY=0;exitDx=0;exitDy=0;" edge="1" parent="1" source="qDhtsbZyAljU5v_HCK9k-9" target="qDhtsbZyAljU5v_HCK9k-26">
          <mxGeometry width="50" height="50" relative="1" as="geometry">
            <mxPoint x="1404" y="231" as="sourcePoint" />
            <mxPoint x="1492" y="176" as="targetPoint" />
          </mxGeometry>
        </mxCell>
        <mxCell id="qDhtsbZyAljU5v_HCK9k-37" value="" style="endArrow=none;html=1;rounded=0;entryX=0.741;entryY=0.996;entryDx=0;entryDy=0;exitX=0.5;exitY=0;exitDx=0;exitDy=0;entryPerimeter=0;" edge="1" parent="1" source="qDhtsbZyAljU5v_HCK9k-9" target="qDhtsbZyAljU5v_HCK9k-28">
          <mxGeometry width="50" height="50" relative="1" as="geometry">
            <mxPoint x="1400" y="230" as="sourcePoint" />
            <mxPoint x="1420" y="170" as="targetPoint" />
          </mxGeometry>
        </mxCell>
        <mxCell id="qDhtsbZyAljU5v_HCK9k-52" value="Dokumen" style="rounded=0;whiteSpace=wrap;html=1;" vertex="1" parent="1">
          <mxGeometry x="550" y="600" width="120" height="60" as="geometry" />
        </mxCell>
        <mxCell id="qDhtsbZyAljU5v_HCK9k-54" value="&lt;div&gt;category_&lt;/div&gt;&lt;div&gt;document_id&lt;br&gt;&lt;/div&gt;" style="ellipse;whiteSpace=wrap;html=1;fontSize=10;" vertex="1" parent="1">
          <mxGeometry x="440" y="720" width="80" height="40" as="geometry" />
        </mxCell>
        <mxCell id="qDhtsbZyAljU5v_HCK9k-55" value="deskripsi" style="ellipse;whiteSpace=wrap;html=1;fontSize=10;" vertex="1" parent="1">
          <mxGeometry x="400" y="660" width="80" height="40" as="geometry" />
        </mxCell>
        <mxCell id="qDhtsbZyAljU5v_HCK9k-56" value="judul" style="ellipse;whiteSpace=wrap;html=1;fontSize=10;" vertex="1" parent="1">
          <mxGeometry x="400" y="600" width="80" height="40" as="geometry" />
        </mxCell>
        <mxCell id="qDhtsbZyAljU5v_HCK9k-57" value="dokumen_id" style="ellipse;whiteSpace=wrap;html=1;fontSize=10;" vertex="1" parent="1">
          <mxGeometry x="400" y="540" width="80" height="40" as="geometry" />
        </mxCell>
        <mxCell id="qDhtsbZyAljU5v_HCK9k-59" value="" style="endArrow=none;html=1;rounded=0;entryX=0.8;entryY=1.01;entryDx=0;entryDy=0;entryPerimeter=0;exitX=0.172;exitY=-0.01;exitDx=0;exitDy=0;exitPerimeter=0;" edge="1" parent="1" source="qDhtsbZyAljU5v_HCK9k-52" target="qDhtsbZyAljU5v_HCK9k-57">
          <mxGeometry width="50" height="50" relative="1" as="geometry">
            <mxPoint x="610" y="630" as="sourcePoint" />
            <mxPoint x="660" y="580" as="targetPoint" />
          </mxGeometry>
        </mxCell>
        <mxCell id="qDhtsbZyAljU5v_HCK9k-60" value="" style="endArrow=none;html=1;rounded=0;entryX=0.95;entryY=0.74;entryDx=0;entryDy=0;entryPerimeter=0;exitX=0;exitY=0.167;exitDx=0;exitDy=0;exitPerimeter=0;" edge="1" parent="1" source="qDhtsbZyAljU5v_HCK9k-52" target="qDhtsbZyAljU5v_HCK9k-56">
          <mxGeometry width="50" height="50" relative="1" as="geometry">
            <mxPoint x="600" y="600" as="sourcePoint" />
            <mxPoint x="619" y="569" as="targetPoint" />
          </mxGeometry>
        </mxCell>
        <mxCell id="qDhtsbZyAljU5v_HCK9k-61" value="" style="endArrow=none;html=1;rounded=0;entryX=1;entryY=0;entryDx=0;entryDy=0;exitX=-0.027;exitY=0.373;exitDx=0;exitDy=0;exitPerimeter=0;" edge="1" parent="1" source="qDhtsbZyAljU5v_HCK9k-52" target="qDhtsbZyAljU5v_HCK9k-55">
          <mxGeometry width="50" height="50" relative="1" as="geometry">
            <mxPoint x="554" y="600" as="sourcePoint" />
            <mxPoint x="570" y="520" as="targetPoint" />
          </mxGeometry>
        </mxCell>
        <mxCell id="qDhtsbZyAljU5v_HCK9k-62" value="" style="endArrow=none;html=1;rounded=0;entryX=1;entryY=0;entryDx=0;entryDy=0;exitX=0;exitY=0.75;exitDx=0;exitDy=0;" edge="1" parent="1" source="qDhtsbZyAljU5v_HCK9k-52" target="qDhtsbZyAljU5v_HCK9k-54">
          <mxGeometry width="50" height="50" relative="1" as="geometry">
            <mxPoint x="526" y="622" as="sourcePoint" />
            <mxPoint x="490" y="540" as="targetPoint" />
          </mxGeometry>
        </mxCell>
        <mxCell id="qDhtsbZyAljU5v_HCK9k-67" value="&lt;div&gt;perangkat_&lt;/div&gt;&lt;div&gt;daerah_d&lt;/div&gt;" style="ellipse;whiteSpace=wrap;html=1;fontSize=10;" vertex="1" parent="1">
          <mxGeometry x="1310" y="540" width="80" height="40" as="geometry" />
        </mxCell>
        <mxCell id="qDhtsbZyAljU5v_HCK9k-69" value="nama" style="ellipse;whiteSpace=wrap;html=1;fontSize=10;" vertex="1" parent="1">
          <mxGeometry x="1380" y="570" width="80" height="40" as="geometry" />
        </mxCell>
        <mxCell id="qDhtsbZyAljU5v_HCK9k-70" value="nama_jabatan" style="ellipse;whiteSpace=wrap;html=1;fontSize=10;" vertex="1" parent="1">
          <mxGeometry x="1400" y="620" width="80" height="40" as="geometry" />
        </mxCell>
        <mxCell id="qDhtsbZyAljU5v_HCK9k-71" value="alamat" style="ellipse;whiteSpace=wrap;html=1;fontSize=10;" vertex="1" parent="1">
          <mxGeometry x="1370" y="670" width="80" height="40" as="geometry" />
        </mxCell>
        <mxCell id="qDhtsbZyAljU5v_HCK9k-72" value="No_telpon" style="ellipse;whiteSpace=wrap;html=1;fontSize=10;" vertex="1" parent="1">
          <mxGeometry x="1330" y="720" width="80" height="40" as="geometry" />
        </mxCell>
        <mxCell id="qDhtsbZyAljU5v_HCK9k-73" value="alamat_email" style="ellipse;whiteSpace=wrap;html=1;fontSize=10;" vertex="1" parent="1">
          <mxGeometry x="1280" y="760" width="80" height="40" as="geometry" />
        </mxCell>
        <mxCell id="qDhtsbZyAljU5v_HCK9k-74" value="situs_web" style="ellipse;whiteSpace=wrap;html=1;fontSize=10;" vertex="1" parent="1">
          <mxGeometry x="1200" y="780" width="80" height="40" as="geometry" />
        </mxCell>
        <mxCell id="qDhtsbZyAljU5v_HCK9k-75" value="" style="endArrow=none;html=1;rounded=0;entryX=0.066;entryY=0.789;entryDx=0;entryDy=0;entryPerimeter=0;exitX=0.75;exitY=0;exitDx=0;exitDy=0;" edge="1" parent="1" source="qDhtsbZyAljU5v_HCK9k-10" target="qDhtsbZyAljU5v_HCK9k-67">
          <mxGeometry width="50" height="50" relative="1" as="geometry">
            <mxPoint x="1140" y="660" as="sourcePoint" />
            <mxPoint x="1190" y="610" as="targetPoint" />
          </mxGeometry>
        </mxCell>
        <mxCell id="qDhtsbZyAljU5v_HCK9k-76" value="" style="endArrow=none;html=1;rounded=0;entryX=0.07;entryY=0.639;entryDx=0;entryDy=0;entryPerimeter=0;exitX=1.004;exitY=0.15;exitDx=0;exitDy=0;exitPerimeter=0;" edge="1" parent="1" source="qDhtsbZyAljU5v_HCK9k-10" target="qDhtsbZyAljU5v_HCK9k-69">
          <mxGeometry width="50" height="50" relative="1" as="geometry">
            <mxPoint x="1280" y="620" as="sourcePoint" />
            <mxPoint x="1325" y="582" as="targetPoint" />
          </mxGeometry>
        </mxCell>
        <mxCell id="qDhtsbZyAljU5v_HCK9k-77" value="" style="endArrow=none;html=1;rounded=0;entryX=0.02;entryY=0.361;entryDx=0;entryDy=0;entryPerimeter=0;exitX=0.999;exitY=0.407;exitDx=0;exitDy=0;exitPerimeter=0;" edge="1" parent="1" source="qDhtsbZyAljU5v_HCK9k-10" target="qDhtsbZyAljU5v_HCK9k-70">
          <mxGeometry width="50" height="50" relative="1" as="geometry">
            <mxPoint x="1310" y="629" as="sourcePoint" />
            <mxPoint x="1396" y="606" as="targetPoint" />
          </mxGeometry>
        </mxCell>
        <mxCell id="qDhtsbZyAljU5v_HCK9k-78" value="" style="endArrow=none;html=1;rounded=0;entryX=0.209;entryY=0.125;entryDx=0;entryDy=0;entryPerimeter=0;exitX=0.985;exitY=0.674;exitDx=0;exitDy=0;exitPerimeter=0;" edge="1" parent="1" source="qDhtsbZyAljU5v_HCK9k-10" target="qDhtsbZyAljU5v_HCK9k-71">
          <mxGeometry width="50" height="50" relative="1" as="geometry">
            <mxPoint x="1310" y="644" as="sourcePoint" />
            <mxPoint x="1412" y="644" as="targetPoint" />
          </mxGeometry>
        </mxCell>
        <mxCell id="qDhtsbZyAljU5v_HCK9k-79" value="" style="endArrow=none;html=1;rounded=0;exitX=0.989;exitY=0.874;exitDx=0;exitDy=0;exitPerimeter=0;" edge="1" parent="1" source="qDhtsbZyAljU5v_HCK9k-10" target="qDhtsbZyAljU5v_HCK9k-72">
          <mxGeometry width="50" height="50" relative="1" as="geometry">
            <mxPoint x="1308" y="660" as="sourcePoint" />
            <mxPoint x="1397" y="685" as="targetPoint" />
          </mxGeometry>
        </mxCell>
        <mxCell id="qDhtsbZyAljU5v_HCK9k-80" value="" style="endArrow=none;html=1;rounded=0;exitX=0.785;exitY=1.007;exitDx=0;exitDy=0;exitPerimeter=0;entryX=0.455;entryY=0.089;entryDx=0;entryDy=0;entryPerimeter=0;" edge="1" parent="1" source="qDhtsbZyAljU5v_HCK9k-10" target="qDhtsbZyAljU5v_HCK9k-73">
          <mxGeometry width="50" height="50" relative="1" as="geometry">
            <mxPoint x="1309" y="672" as="sourcePoint" />
            <mxPoint x="1363" y="732" as="targetPoint" />
          </mxGeometry>
        </mxCell>
        <mxCell id="qDhtsbZyAljU5v_HCK9k-81" value="" style="endArrow=none;html=1;rounded=0;exitX=0.537;exitY=1.026;exitDx=0;exitDy=0;exitPerimeter=0;entryX=0.627;entryY=0.061;entryDx=0;entryDy=0;entryPerimeter=0;" edge="1" parent="1" source="qDhtsbZyAljU5v_HCK9k-10" target="qDhtsbZyAljU5v_HCK9k-74">
          <mxGeometry width="50" height="50" relative="1" as="geometry">
            <mxPoint x="1284" y="680" as="sourcePoint" />
            <mxPoint x="1326" y="774" as="targetPoint" />
          </mxGeometry>
        </mxCell>
        <mxCell id="qDhtsbZyAljU5v_HCK9k-82" value="Pengguna Umum" style="rounded=0;whiteSpace=wrap;html=1;" vertex="1" parent="1">
          <mxGeometry x="890" y="300" width="120" height="60" as="geometry" />
        </mxCell>
        <mxCell id="qDhtsbZyAljU5v_HCK9k-83" value="" style="endArrow=none;html=1;rounded=0;entryX=0.41;entryY=1.012;entryDx=0;entryDy=0;entryPerimeter=0;exitX=0;exitY=0.5;exitDx=0;exitDy=0;" edge="1" parent="1" source="qDhtsbZyAljU5v_HCK9k-1" target="qDhtsbZyAljU5v_HCK9k-8">
          <mxGeometry width="50" height="50" relative="1" as="geometry">
            <mxPoint x="930" y="500" as="sourcePoint" />
            <mxPoint x="980" y="450" as="targetPoint" />
            <Array as="points">
              <mxPoint x="600" y="500" />
            </Array>
          </mxGeometry>
        </mxCell>
        <mxCell id="qDhtsbZyAljU5v_HCK9k-85" value="mengelola" style="rhombus;whiteSpace=wrap;html=1;fontSize=10;" vertex="1" parent="1">
          <mxGeometry x="740" y="470" width="90" height="60" as="geometry" />
        </mxCell>
        <mxCell id="qDhtsbZyAljU5v_HCK9k-86" value="" style="endArrow=none;html=1;rounded=0;entryX=0.5;entryY=1;entryDx=0;entryDy=0;exitX=1;exitY=0.5;exitDx=0;exitDy=0;" edge="1" parent="1" source="qDhtsbZyAljU5v_HCK9k-87" target="qDhtsbZyAljU5v_HCK9k-1">
          <mxGeometry width="50" height="50" relative="1" as="geometry">
            <mxPoint x="830" y="550" as="sourcePoint" />
            <mxPoint x="880" y="500" as="targetPoint" />
            <Array as="points">
              <mxPoint x="952" y="630" />
            </Array>
          </mxGeometry>
        </mxCell>
        <mxCell id="qDhtsbZyAljU5v_HCK9k-89" value="" style="endArrow=none;html=1;rounded=0;entryX=0;entryY=0.5;entryDx=0;entryDy=0;exitX=1;exitY=0.5;exitDx=0;exitDy=0;" edge="1" parent="1" source="qDhtsbZyAljU5v_HCK9k-52" target="qDhtsbZyAljU5v_HCK9k-87">
          <mxGeometry width="50" height="50" relative="1" as="geometry">
            <mxPoint x="620" y="630" as="sourcePoint" />
            <mxPoint x="952" y="530" as="targetPoint" />
            <Array as="points" />
          </mxGeometry>
        </mxCell>
        <mxCell id="qDhtsbZyAljU5v_HCK9k-87" value="mengelola" style="rhombus;whiteSpace=wrap;html=1;fontSize=10;" vertex="1" parent="1">
          <mxGeometry x="760" y="600" width="90" height="60" as="geometry" />
        </mxCell>
        <mxCell id="qDhtsbZyAljU5v_HCK9k-90" value="" style="endArrow=none;html=1;rounded=0;entryX=0;entryY=0.5;entryDx=0;entryDy=0;exitX=0.585;exitY=0.995;exitDx=0;exitDy=0;exitPerimeter=0;" edge="1" parent="1" source="qDhtsbZyAljU5v_HCK9k-1" target="qDhtsbZyAljU5v_HCK9k-10">
          <mxGeometry width="50" height="50" relative="1" as="geometry">
            <mxPoint x="1040" y="570" as="sourcePoint" />
            <mxPoint x="1090" y="520" as="targetPoint" />
            <Array as="points">
              <mxPoint x="962" y="640" />
            </Array>
          </mxGeometry>
        </mxCell>
        <mxCell id="qDhtsbZyAljU5v_HCK9k-91" value="mengelola" style="rhombus;whiteSpace=wrap;html=1;fontSize=10;" vertex="1" parent="1">
          <mxGeometry x="1040" y="610" width="100" height="60" as="geometry" />
        </mxCell>
        <mxCell id="qDhtsbZyAljU5v_HCK9k-93" value="" style="endArrow=none;html=1;rounded=0;exitX=1;exitY=0.5;exitDx=0;exitDy=0;entryX=0.576;entryY=1.009;entryDx=0;entryDy=0;entryPerimeter=0;" edge="1" parent="1" source="qDhtsbZyAljU5v_HCK9k-94" target="qDhtsbZyAljU5v_HCK9k-9">
          <mxGeometry width="50" height="50" relative="1" as="geometry">
            <mxPoint x="1150" y="330" as="sourcePoint" />
            <mxPoint x="1200" y="280" as="targetPoint" />
            <Array as="points">
              <mxPoint x="1340" y="500" />
            </Array>
          </mxGeometry>
        </mxCell>
        <mxCell id="qDhtsbZyAljU5v_HCK9k-95" value="" style="endArrow=none;html=1;rounded=0;exitX=1;exitY=0.5;exitDx=0;exitDy=0;entryX=0;entryY=0.5;entryDx=0;entryDy=0;" edge="1" parent="1" source="qDhtsbZyAljU5v_HCK9k-1" target="qDhtsbZyAljU5v_HCK9k-94">
          <mxGeometry width="50" height="50" relative="1" as="geometry">
            <mxPoint x="1012" y="500" as="sourcePoint" />
            <mxPoint x="1339" y="301" as="targetPoint" />
            <Array as="points" />
          </mxGeometry>
        </mxCell>
        <mxCell id="qDhtsbZyAljU5v_HCK9k-94" value="mengelola" style="rhombus;whiteSpace=wrap;html=1;fontSize=10;" vertex="1" parent="1">
          <mxGeometry x="1110" y="470" width="120" height="60" as="geometry" />
        </mxCell>
        <mxCell id="qDhtsbZyAljU5v_HCK9k-96" value="" style="endArrow=none;html=1;rounded=0;entryX=0.5;entryY=0;entryDx=0;entryDy=0;exitX=1;exitY=0.25;exitDx=0;exitDy=0;" edge="1" parent="1" source="qDhtsbZyAljU5v_HCK9k-8" target="qDhtsbZyAljU5v_HCK9k-82">
          <mxGeometry width="50" height="50" relative="1" as="geometry">
            <mxPoint x="880" y="430" as="sourcePoint" />
            <mxPoint x="930" y="380" as="targetPoint" />
            <Array as="points">
              <mxPoint x="950" y="255" />
            </Array>
          </mxGeometry>
        </mxCell>
        <mxCell id="qDhtsbZyAljU5v_HCK9k-97" value="" style="rhombus;whiteSpace=wrap;html=1;" vertex="1" parent="1">
          <mxGeometry x="740" y="230" width="95" height="60" as="geometry" />
        </mxCell>
      </root>
    </mxGraphModel>
  </diagram>
</mxfile>
